# xmcd
#
# Track frame offsets:
#	150
#	10674
#	30630
#	46043
#	67204
#	84087
#	92465
#	106276
#	119982
#	135925
#	148641
#	163945
#	176331
#	188983
#	205395
#
# Disc length: 2919 seconds
#
# Revision: 2
# Processed by: cddbd v1.5.2PL0 Copyright (c) Steve Scherf et al.
# Submitted via: audiograbber 1.83.01
#
DISCID=c70b650f
DTITLE=J.J. Cale - Stay Around
DYEAR=2019
DGENRE=Blues Rock
TTITLE0=Lights Down Low
TTITLE1=Chasing You
TTITLE2=Winter Snow
TTITLE3=Stay Around
TTITLE4=Tell You 'Bout Her
TTITLE5=Oh My My
TTITLE6=My Baby Blues
TTITLE7=Girl Of Mine
TTITLE8=Go Downtown
TTITLE9=If We Try
TTITLE10=Tell Daddy
TTITLE11=Wish You Were Here
TTITLE12=Long About Sundown
TTITLE13=Maria
TTITLE14=Don't Call Me Joe
EXTD=
EXTT0=
EXTT1=
EXTT2=
EXTT3=
EXTT4=
EXTT5=
EXTT6=
EXTT7=
EXTT8=
EXTT9=
EXTT10=
EXTT11=
EXTT12=
EXTT13=
EXTT14=
PLAYORDER=
